name rise45.9887peak57.8056fall74.9286.mot
datacolumns 19
datarows 29
range 1.44333100000000 1.48999300000000
endheader
time	ground_force1_vx	ground_force1_vy	ground_force1_vz	ground_force1_px	ground_force1_py	ground_force1_pz	ground_force2_vx	ground_force2_vy	ground_force2_vz	ground_force2_px	ground_force2_py	ground_force2_pz	ground_torque1_x	ground_torque1_y	ground_torque1_z	ground_torque2_x	ground_torque2_y	ground_torque2_z	
1.44333100000000	-33.69487100000000	789.34903699999995	50.27302000000000	0.17305800000000	0.00000000000000	0.09727000000000	-9.54272600000000	55.96205000000000	6.09902600000000	0.40562200000000	0.00000000000000	-0.07410200000000	0.00000000000000	24.06780900000000	0.00000000000000	0.00000000000000	3.38214600000000	0.00000000000000	
1.44499500000000	-34.37449000000000	787.98236299999996	50.20705300000000	0.17200100000000	0.00000000000000	0.09724200000000	-10.05105700000000	61.71287300000000	6.57548600000000	0.40744900000000	0.00000000000000	-0.07415500000000	0.00000000000000	24.02105600000000	0.00000000000000	0.00000000000000	3.70912900000000	0.00000000000000	
1.44666600000000	-35.06458700000000	786.53275399999995	50.12307000000000	0.17094600000000	0.00000000000000	0.09721100000000	-10.42457700000000	67.24068900000000	6.99522300000000	0.40914800000000	0.00000000000000	-0.07421200000000	0.00000000000000	23.97154700000000	0.00000000000000	0.00000000000000	4.01472000000000	0.00000000000000	
1.44832700000000	-35.76522600000000	784.99870299999998	50.02085100000000	0.16989200000000	0.00000000000000	0.09717900000000	-10.66431200000000	72.53251400000001	7.35725500000000	0.41073600000000	0.00000000000000	-0.07427200000000	0.00000000000000	23.91936700000000	0.00000000000000	0.00000000000000	4.29738200000000	0.00000000000000	
1.44999500000000	-36.47643800000000	783.37866299999996	49.90020700000000	0.16883900000000	0.00000000000000	0.09714400000000	-10.77671600000000	77.59737600000000	7.66349300000000	0.41222900000000	0.00000000000000	-0.07433500000000	0.00000000000000	23.86460300000000	0.00000000000000	0.00000000000000	4.55704700000000	0.00000000000000	
1.45166200000000	-37.19821300000000	781.67104700000004	49.76098500000000	0.16778900000000	0.00000000000000	0.09710800000000	-10.77241300000000	82.46227300000000	7.91813200000000	0.41363800000000	0.00000000000000	-0.07440100000000	0.00000000000000	23.80734700000000	0.00000000000000	0.00000000000000	4.79485900000000	0.00000000000000	
1.45332900000000	-37.93050300000000	779.87422300000003	49.60306200000000	0.16674100000000	0.00000000000000	0.09706900000000	-10.66480700000000	87.16735400000000	8.12696400000000	0.41497400000000	0.00000000000000	-0.07446900000000	0.00000000000000	23.74769000000000	0.00000000000000	0.00000000000000	5.01286300000000	0.00000000000000	
1.45500000000000	-38.67321900000000	777.98651500000005	49.42635300000000	0.16569700000000	0.00000000000000	0.09702800000000	-10.46871400000000	91.76085100000000	8.29666600000000	0.41624600000000	0.00000000000000	-0.07453800000000	0.00000000000000	23.68572600000000	0.00000000000000	0.00000000000000	5.21366100000000	0.00000000000000	
1.45666700000000	-39.42622800000000	776.00620300000003	49.23080700000000	0.16465600000000	0.00000000000000	0.09698500000000	-10.19910900000000	96.29422700000001	8.43415300000000	0.41746100000000	0.00000000000000	-0.07460900000000	0.00000000000000	23.62154700000000	0.00000000000000	0.00000000000000	5.40009800000000	0.00000000000000	
1.45832900000000	-40.18935400000000	773.93152299999997	49.01640700000000	0.16362000000000	0.00000000000000	0.09694000000000	-9.87007300000000	100.81787799999999	8.54600900000000	0.41862600000000	0.00000000000000	-0.07468200000000	0.00000000000000	23.55524600000000	0.00000000000000	0.00000000000000	5.57496900000000	0.00000000000000	
1.45999600000000	-40.96237400000000	771.76066500000002	48.78317300000000	0.16258900000000	0.00000000000000	0.09689300000000	-9.49399700000000	105.37764000000000	8.63804700000000	0.41974700000000	0.00000000000000	-0.07475500000000	0.00000000000000	23.48691500000000	0.00000000000000	0.00000000000000	5.74078600000000	0.00000000000000	
1.46166200000000	-41.74501600000000	769.49177499999996	48.53116000000000	0.16156400000000	0.00000000000000	0.09684300000000	-9.08104500000000	110.01223100000000	8.71499500000000	0.42082700000000	0.00000000000000	-0.07483000000000	0.00000000000000	23.41664400000000	0.00000000000000	0.00000000000000	5.89960600000000	0.00000000000000	
1.46333100000000	-42.53696000000000	767.12295800000004	48.26045600000000	0.16054600000000	0.00000000000000	0.09679100000000	-8.63887800000000	114.75164800000000	8.78032600000000	0.42187100000000	0.00000000000000	-0.07490600000000	0.00000000000000	23.34451800000000	0.00000000000000	0.00000000000000	6.05291900000000	0.00000000000000	
1.46499700000000	-43.33783600000000	764.65227600000003	47.97118600000000	0.15953400000000	0.00000000000000	0.09673600000000	-8.17262200000000	119.61648500000000	8.83620700000000	0.42288200000000	0.00000000000000	-0.07498200000000	0.00000000000000	23.27062200000000	0.00000000000000	0.00000000000000	6.20160200000000	0.00000000000000	
1.46666500000000	-44.14722100000000	762.07775200000003	47.66350900000000	0.15852900000000	0.00000000000000	0.09667900000000	-7.68502200000000	124.61804200000000	8.88354600000000	0.42386200000000	0.00000000000000	-0.07506000000000	0.00000000000000	23.19503600000000	0.00000000000000	0.00000000000000	6.34592200000000	0.00000000000000	
1.46833000000000	-44.96463800000000	759.39737400000001	47.33761700000000	0.15753300000000	0.00000000000000	0.09661900000000	-7.17675100000000	129.75908100000001	8.92213800000000	0.42481300000000	0.00000000000000	-0.07513800000000	0.00000000000000	23.11783300000000	0.00000000000000	0.00000000000000	6.48559000000000	0.00000000000000	
1.46999400000000	-45.78955600000000	756.60909600000002	46.99373700000000	0.15654500000000	0.00000000000000	0.09655700000000	-6.64681200000000	135.03505300000000	8.95084900000000	0.42573700000000	0.00000000000000	-0.07521700000000	0.00000000000000	23.03908200000000	0.00000000000000	0.00000000000000	6.61984100000000	0.00000000000000	
1.47166100000000	-46.62138800000000	753.71083999999996	46.63212500000000	0.15556600000000	0.00000000000000	0.09649300000000	-6.09299700000000	140.43561700000001	8.96784800000000	0.42663500000000	0.00000000000000	-0.07529700000000	0.00000000000000	22.95884600000000	0.00000000000000	0.00000000000000	6.74753500000000	0.00000000000000	
1.47332800000000	-47.45949100000000	750.70050600000002	46.25307200000000	0.15459700000000	0.00000000000000	0.09642500000000	-5.51234200000000	145.94627700000001	8.97084000000000	0.42750800000000	0.00000000000000	-0.07537800000000	0.00000000000000	22.87718100000000	0.00000000000000	0.00000000000000	6.86726900000000	0.00000000000000	
1.47499700000000	-48.30316300000000	747.57596999999998	45.85689600000000	0.15363800000000	0.00000000000000	0.09635600000000	-4.90156700000000	151.55000899999999	8.95729400000000	0.42835700000000	0.00000000000000	-0.07545900000000	0.00000000000000	22.79413500000000	0.00000000000000	0.00000000000000	6.97748800000000	0.00000000000000	
1.47666700000000	-49.15164300000000	744.33509300000003	45.44394600000000	0.15268900000000	0.00000000000000	0.09628400000000	-4.25744800000000	157.22874600000000	8.92464200000000	0.42918200000000	0.00000000000000	-0.07554100000000	0.00000000000000	22.70974700000000	0.00000000000000	0.00000000000000	7.07658900000000	0.00000000000000	
1.47833000000000	-50.00411400000000	740.97572400000001	45.01459800000000	0.15175100000000	0.00000000000000	0.09620900000000	-3.57712500000000	162.96464900000001	8.87044800000000	0.42998200000000	0.00000000000000	-0.07562500000000	0.00000000000000	22.62404900000000	0.00000000000000	0.00000000000000	7.16300600000000	0.00000000000000	
1.47999900000000	-50.85969500000000	737.49571000000003	44.56925400000000	0.15082500000000	0.00000000000000	0.09613200000000	-2.85832600000000	168.74110800000000	8.79253900000000	0.43075800000000	0.00000000000000	-0.07570900000000	0.00000000000000	22.53706200000000	0.00000000000000	0.00000000000000	7.23528100000000	0.00000000000000	
1.48166300000000	-51.71744900000000	733.89289499999995	44.10834100000000	0.14990900000000	0.00000000000000	0.09605200000000	-2.09950700000000	174.54345499999999	8.68908700000000	0.43150900000000	0.00000000000000	-0.07579400000000	0.00000000000000	22.44879800000000	0.00000000000000	0.00000000000000	7.29211400000000	0.00000000000000	
1.48332800000000	-52.57637600000000	730.16513499999996	43.63230900000000	0.14900600000000	0.00000000000000	0.09597000000000	-1.29991900000000	180.35939400000001	8.55866200000000	0.43223600000000	0.00000000000000	-0.07588000000000	0.00000000000000	22.35925800000000	0.00000000000000	0.00000000000000	7.33239500000000	0.00000000000000	
1.48499400000000	-53.43541700000000	726.31029799999999	43.14162800000000	0.14811400000000	0.00000000000000	0.09588600000000	-0.45960700000000	186.17916700000001	8.40023700000000	0.43293600000000	0.00000000000000	-0.07596800000000	0.00000000000000	22.26843500000000	0.00000000000000	0.00000000000000	7.35521900000000	0.00000000000000	
1.48666100000000	-54.29345300000000	722.32627500000001	42.63679000000000	0.14723400000000	0.00000000000000	0.09579900000000	0.42064800000000	191.99551000000000	8.21317800000000	0.43360900000000	0.00000000000000	-0.07605600000000	0.00000000000000	22.17630600000000	0.00000000000000	0.00000000000000	7.35988300000000	0.00000000000000	
1.48833200000000	-55.14930700000000	718.21098700000005	42.11830300000000	0.14636700000000	0.00000000000000	0.09571000000000	1.33942200000000	197.80343099999999	7.99720200000000	0.43425500000000	0.00000000000000	-0.07614600000000	0.00000000000000	22.08284300000000	0.00000000000000	0.00000000000000	7.34587100000000	0.00000000000000	
1.48999300000000	-56.00174200000000	713.96239300000002	41.58669300000000	0.14551100000000	0.00000000000000	0.09561900000000	2.29476400000000	203.59987699999999	7.75232400000000	0.43487200000000	0.00000000000000	-0.07623700000000	0.00000000000000	21.98800100000000	0.00000000000000	0.00000000000000	7.31283800000000	0.00000000000000	
